<svg width="512" height="512" viewBox="0 0 512 512" fill="none" xmlns="http://www.w3.org/2000/svg">
<g clip-path="url(#clip0)">
<path d="M373.333 458.667C367.445 458.667 362.667 453.888 362.667 448V426.667C362.667 420.779 367.445 416 373.333 416C379.221 416 384 420.779 384 426.667V448C384 453.888 379.221 458.667 373.333 458.667Z" fill="black"/>
<path d="M378.667 437.333H341.333C335.445 437.333 330.667 432.555 330.667 426.667C330.667 420.779 335.445 416 341.333 416H378.667C387.499 416 394.667 408.832 394.667 400C394.667 391.168 387.499 384 378.667 384H368C347.413 384 330.667 367.253 330.667 346.667C330.667 326.08 347.413 309.333 368 309.333H405.333C411.221 309.333 416 314.112 416 320C416 325.888 411.221 330.667 405.333 330.667H368C359.168 330.667 352 337.835 352 346.667C352 355.499 359.168 362.667 368 362.667H378.667C399.253 362.667 416 379.413 416 400C416 420.587 399.253 437.333 378.667 437.333Z" fill="black"/>
<path d="M373.333 330.667C367.445 330.667 362.667 325.888 362.667 320V298.667C362.667 292.779 367.445 288 373.333 288C379.221 288 384 292.779 384 298.667V320C384 325.888 379.221 330.667 373.333 330.667Z" fill="black"/>
<path d="M373.333 512C296.875 512 234.667 449.792 234.667 373.333C234.667 296.875 296.875 234.667 373.333 234.667C449.792 234.667 512 296.875 512 373.333C512 449.792 449.792 512 373.333 512ZM373.333 256C308.629 256 256 308.629 256 373.333C256 438.037 308.629 490.667 373.333 490.667C438.037 490.667 490.667 438.037 490.667 373.333C490.667 308.629 438.037 256 373.333 256Z" fill="black"/>
<path d="M181.333 448H53.3333C23.936 448 0 424.064 0 394.667V53.3333C0 23.936 23.936 0 53.3333 0H288C317.397 0 341.333 23.936 341.333 53.3333V181.333C341.333 187.221 336.555 192 330.667 192C324.779 192 320 187.221 320 181.333V53.3333C320 35.6907 305.643 21.3333 288 21.3333H53.3333C35.6907 21.3333 21.3333 35.6907 21.3333 53.3333V394.667C21.3333 412.309 35.6907 426.667 53.3333 426.667H181.333C187.221 426.667 192 431.445 192 437.333C192 443.221 187.221 448 181.333 448Z" fill="black"/>
<path d="M74.6666 277.333C71.936 277.333 69.2053 276.288 67.1146 274.219C62.9546 270.059 62.9546 263.296 67.1146 259.136L120.448 205.803C123.691 202.539 128.64 201.728 132.757 203.797L168.555 221.696L237.781 152.469C241.941 148.309 248.704 148.309 252.864 152.469C257.024 156.629 257.024 163.392 252.864 167.552L178.197 242.219C174.933 245.483 169.963 246.251 165.888 244.224L130.091 226.325L82.1973 274.219C80.128 276.288 77.3973 277.333 74.6666 277.333V277.333Z" fill="black"/>
<path d="M245.333 234.667C239.445 234.667 234.667 229.888 234.667 224V170.667H181.333C175.445 170.667 170.667 165.888 170.667 160C170.667 154.112 175.445 149.333 181.333 149.333H245.333C251.221 149.333 256 154.112 256 160V224C256 229.888 251.221 234.667 245.333 234.667Z" fill="black"/>
</g>
<defs>
<clipPath id="clip0">
<rect width="512" height="512" fill="white"/>
</clipPath>
</defs>
</svg>
