<svg width="512" height="512" viewBox="0 0 512 512" fill="none" xmlns="http://www.w3.org/2000/svg">
<path d="M474.379 207.436C478.521 207.436 481.879 204.078 481.879 199.936V105.373C481.879 98.4799 476.272 92.8729 469.379 92.8729H124.064C119.922 92.8729 116.564 96.2309 116.564 100.373C116.564 104.515 119.922 107.873 124.064 107.873H466.879V199.936C466.879 204.078 470.237 207.436 474.379 207.436Z" fill="black"/>
<path d="M474.5 62.752H37.5C16.822 62.752 0 79.574 0 100.252V411.747C0 432.425 16.822 449.247 37.5 449.247H255.638C259.78 449.247 263.138 445.889 263.138 441.747C263.138 437.605 259.78 434.247 255.638 434.247H37.5C25.093 434.247 15 424.154 15 411.747V100.252C15 87.845 25.093 77.752 37.5 77.752H474.5C486.907 77.752 497 87.845 497 100.252V411.747C497 424.154 486.907 434.247 474.5 434.247H290.617C286.475 434.247 283.117 437.605 283.117 441.747C283.117 445.889 286.475 449.247 290.617 449.247H474.5C495.178 449.247 512 432.425 512 411.747V100.252C512 79.575 495.178 62.752 474.5 62.752V62.752Z" fill="black"/>
<path d="M88.4381 92.8739H42.6211C35.7281 92.8739 30.1211 98.4809 30.1211 105.374V406.627C30.1211 413.52 35.7281 419.127 42.6211 419.127H469.379C476.272 419.127 481.879 413.52 481.879 406.627V235.234C481.879 231.092 478.521 227.734 474.379 227.734C470.237 227.734 466.879 231.092 466.879 235.234V404.127H45.1211V107.874H88.4381C92.5801 107.874 95.9381 104.516 95.9381 100.374C95.9381 96.2319 92.5811 92.8739 88.4381 92.8739V92.8739Z" fill="black"/>
<path d="M188.095 282.31C192.237 282.31 195.595 278.952 195.595 274.81C195.595 270.668 192.237 267.31 188.095 267.31H147.436C143.294 267.31 139.936 270.668 139.936 274.81V375.129C139.936 379.271 143.294 382.629 147.436 382.629C151.578 382.629 154.936 379.271 154.936 375.129V331.52H184.865C189.007 331.52 192.365 328.162 192.365 324.02C192.365 319.878 189.007 316.52 184.865 316.52H154.936V282.31H188.095Z" fill="black"/>
<path d="M274.715 367.537H240.022V332.469H271.604C275.746 332.469 279.104 329.111 279.104 324.969C279.104 320.827 275.746 317.469 271.604 317.469H240.022V282.401H274.715C278.857 282.401 282.215 279.043 282.215 274.901C282.215 270.759 278.857 267.401 274.715 267.401H232.522C228.38 267.401 225.022 270.759 225.022 274.901V375.037C225.022 379.179 228.38 382.537 232.522 382.537H274.715C278.857 382.537 282.215 379.179 282.215 375.037C282.215 370.895 278.857 367.537 274.715 367.537V367.537Z" fill="black"/>
<path d="M364.564 367.537H329.871V332.469H361.453C365.595 332.469 368.953 329.111 368.953 324.969C368.953 320.827 365.595 317.469 361.453 317.469H329.871V282.401H364.564C368.706 282.401 372.064 279.043 372.064 274.901C372.064 270.759 368.706 267.401 364.564 267.401H322.371C318.229 267.401 314.871 270.759 314.871 274.901V375.037C314.871 379.179 318.229 382.537 322.371 382.537H364.564C368.706 382.537 372.064 379.179 372.064 375.037C372.064 370.895 368.706 367.537 364.564 367.537V367.537Z" fill="black"/>
<path d="M147.039 244.69C142.897 244.69 139.539 241.332 139.539 237.19V137.059C139.539 133.777 141.673 130.876 144.807 129.899C147.941 128.923 151.346 130.096 153.21 132.797L209.649 214.525L208.899 136.944C208.859 132.802 212.184 129.412 216.326 129.372H216.4C220.508 129.372 223.858 132.682 223.898 136.799L224.836 233.737C224.836 238.318 222.382 241.998 218.584 243.184C214.905 244.334 210.976 242.832 208.571 239.36L154.539 161.118V237.19C154.539 241.333 151.181 244.69 147.039 244.69V244.69Z" fill="black"/>
<path d="M314.802 244.69C283.009 244.69 257.143 218.824 257.143 187.03C257.143 155.236 283.009 129.371 314.802 129.371C346.595 129.371 372.461 155.237 372.461 187.03C372.461 218.823 346.596 244.69 314.802 244.69ZM314.802 144.372C291.28 144.372 272.143 163.509 272.143 187.031C272.143 210.553 291.28 229.691 314.802 229.691C338.324 229.691 357.461 210.554 357.461 187.031C357.461 163.508 338.325 144.372 314.802 144.372Z" fill="black"/>
</svg>
