<svg width="524" height="125" viewBox="0 0 524 125" fill="none" xmlns="http://www.w3.org/2000/svg">
<path d="M118.55 109.91C119.23 111.383 119.57 112.857 119.57 114.33C119.57 116.937 118.493 119.147 116.34 120.96C114.3 122.773 111.92 123.68 109.2 123.68C107.387 123.68 105.687 123.227 104.1 122.32C102.513 121.3 101.267 119.77 100.36 117.73L90.16 94.95H30.32L20.12 117.73C19.2133 119.77 17.9667 121.3 16.38 122.32C14.7933 123.227 13.0367 123.68 11.11 123.68C8.50333 123.68 6.12333 122.773 3.97 120.96C1.81667 119.147 0.74 116.937 0.74 114.33C0.74 112.857 1.08 111.383 1.76 109.91L48.68 9.1C49.7 6.83333 51.23 5.13332 53.27 3.99999C55.4233 2.75333 57.69 2.13 60.07 2.13C62.45 2.13 64.66 2.75333 66.7 3.99999C68.8533 5.13332 70.44 6.83333 71.46 9.1L118.55 109.91ZM37.8 77.95H82.68L60.24 27.46L37.8 77.95ZM176.944 108.21C182.61 108.55 185.444 111.1 185.444 115.86C185.444 118.58 184.31 120.677 182.044 122.15C179.89 123.51 176.774 124.077 172.694 123.85L168.104 123.51C149.064 122.15 139.544 111.95 139.544 92.91V55.85H131.044C127.984 55.85 125.604 55.17 123.904 53.81C122.317 52.45 121.524 50.4667 121.524 47.86C121.524 45.2533 122.317 43.27 123.904 41.91C125.604 40.55 127.984 39.87 131.044 39.87H139.544V24.23C139.544 21.17 140.507 18.7333 142.434 16.92C144.36 15.1067 146.967 14.2 150.254 14.2C153.427 14.2 155.977 15.1067 157.904 16.92C159.83 18.7333 160.794 21.17 160.794 24.23V39.87H175.244C178.304 39.87 180.627 40.55 182.214 41.91C183.914 43.27 184.764 45.2533 184.764 47.86C184.764 50.4667 183.914 52.45 182.214 53.81C180.627 55.17 178.304 55.85 175.244 55.85H160.794V94.44C160.794 102.827 164.647 107.303 172.354 107.87L176.944 108.21ZM240.235 108.21C245.902 108.55 248.735 111.1 248.735 115.86C248.735 118.58 247.602 120.677 245.335 122.15C243.182 123.51 240.065 124.077 235.985 123.85L231.395 123.51C212.355 122.15 202.835 111.95 202.835 92.91V55.85H194.335C191.275 55.85 188.895 55.17 187.195 53.81C185.609 52.45 184.815 50.4667 184.815 47.86C184.815 45.2533 185.609 43.27 187.195 41.91C188.895 40.55 191.275 39.87 194.335 39.87H202.835V24.23C202.835 21.17 203.799 18.7333 205.725 16.92C207.652 15.1067 210.259 14.2 213.545 14.2C216.719 14.2 219.269 15.1067 221.195 16.92C223.122 18.7333 224.085 21.17 224.085 24.23V39.87H238.535C241.595 39.87 243.919 40.55 245.505 41.91C247.205 43.27 248.055 45.2533 248.055 47.86C248.055 50.4667 247.205 52.45 245.505 53.81C243.919 55.17 241.595 55.85 238.535 55.85H224.085V94.44C224.085 102.827 227.939 107.303 235.645 107.87L240.235 108.21ZM297.549 37.83C309.109 37.83 317.666 40.72 323.219 46.5C328.886 52.1667 331.719 60.8367 331.719 72.51V113.99C331.719 117.05 330.813 119.487 328.999 121.3C327.186 123 324.693 123.85 321.519 123.85C318.573 123.85 316.136 122.943 314.209 121.13C312.396 119.317 311.489 116.937 311.489 113.99V110.25C309.563 114.67 306.503 118.127 302.309 120.62C298.229 123.113 293.469 124.36 288.029 124.36C282.476 124.36 277.433 123.227 272.899 120.96C268.366 118.693 264.796 115.577 262.189 111.61C259.583 107.643 258.279 103.223 258.279 98.35C258.279 92.23 259.809 87.4133 262.869 83.9C266.043 80.3867 271.143 77.8367 278.169 76.25C285.196 74.6633 294.886 73.87 307.239 73.87H311.489V69.96C311.489 64.4067 310.299 60.3833 307.919 57.89C305.539 55.2833 301.686 53.98 296.359 53.98C293.073 53.98 289.729 54.49 286.329 55.51C282.929 56.4167 278.906 57.7767 274.259 59.59C271.313 61.0633 269.159 61.8 267.799 61.8C265.759 61.8 264.059 61.0633 262.699 59.59C261.453 58.1167 260.829 56.19 260.829 53.81C260.829 51.8833 261.283 50.24 262.189 48.88C263.209 47.4067 264.853 46.0467 267.119 44.8C271.086 42.6467 275.789 40.9467 281.229 39.7C286.783 38.4533 292.223 37.83 297.549 37.83ZM292.279 109.06C297.946 109.06 302.536 107.19 306.049 103.45C309.676 99.5967 311.489 94.6667 311.489 88.66V85.09H308.429C300.836 85.09 294.943 85.43 290.749 86.11C286.556 86.79 283.553 87.98 281.739 89.68C279.926 91.38 279.019 93.7033 279.019 96.65C279.019 100.277 280.266 103.28 282.759 105.66C285.366 107.927 288.539 109.06 292.279 109.06ZM365.556 124.02C362.496 124.02 359.946 123.17 357.906 121.47C355.979 119.657 355.016 117.107 355.016 113.82V48.2C355.016 44.9133 355.979 42.42 357.906 40.72C359.946 39.02 362.496 38.17 365.556 38.17C368.616 38.17 371.166 39.02 373.206 40.72C375.246 42.42 376.266 44.9133 376.266 48.2V113.82C376.266 117.107 375.246 119.657 373.206 121.47C371.166 123.17 368.616 124.02 365.556 124.02ZM365.556 23.04C361.703 23.04 358.643 22.02 356.376 19.98C354.109 17.8267 352.976 15.05 352.976 11.65C352.976 8.24999 354.109 5.52999 356.376 3.49C358.643 1.45 361.703 0.429997 365.556 0.429997C369.296 0.429997 372.299 1.45 374.566 3.49C376.946 5.52999 378.136 8.24999 378.136 11.65C378.136 15.05 377.003 17.8267 374.736 19.98C372.469 22.02 369.409 23.04 365.556 23.04ZM448.16 37.83C458.133 37.83 465.557 40.6633 470.43 46.33C475.303 51.9967 477.74 60.5533 477.74 72V113.82C477.74 116.993 476.777 119.487 474.85 121.3C473.037 123.113 470.487 124.02 467.2 124.02C463.913 124.02 461.307 123.113 459.38 121.3C457.453 119.487 456.49 116.993 456.49 113.82V73.19C456.49 66.73 455.243 62.0267 452.75 59.08C450.37 56.1333 446.573 54.66 441.36 54.66C435.24 54.66 430.31 56.5867 426.57 60.44C422.943 64.2933 421.13 69.45 421.13 75.91V113.82C421.13 116.993 420.167 119.487 418.24 121.3C416.313 123.113 413.707 124.02 410.42 124.02C407.133 124.02 404.527 123.113 402.6 121.3C400.787 119.487 399.88 116.993 399.88 113.82V48.03C399.88 45.0833 400.843 42.7033 402.77 40.89C404.697 39.0767 407.303 38.17 410.59 38.17C413.537 38.17 415.917 39.0767 417.73 40.89C419.657 42.59 420.62 44.8567 420.62 47.69V52.28C423.453 47.6333 427.25 44.0633 432.01 41.57C436.77 39.0767 442.153 37.83 448.16 37.83ZM511.053 124.02C507.427 124.02 504.423 122.83 502.043 120.45C499.663 117.957 498.473 114.897 498.473 111.27C498.473 107.643 499.663 104.64 502.043 102.26C504.423 99.7667 507.427 98.52 511.053 98.52C514.68 98.52 517.683 99.7667 520.063 102.26C522.443 104.64 523.633 107.643 523.633 111.27C523.633 114.897 522.443 117.957 520.063 120.45C517.683 122.83 514.68 124.02 511.053 124.02Z" fill="white"/>
</svg>
