<svg width="512" height="512" viewBox="0 0 512 512" fill="none" xmlns="http://www.w3.org/2000/svg">
<path d="M510.45 179.289C509.031 177.439 506.831 176.355 504.5 176.355H296.081C292.686 176.355 289.715 178.635 288.836 181.914L258.765 294.14C258.161 296.392 258.64 298.797 260.059 300.647C261.478 302.497 263.678 303.581 266.009 303.581H399.107L394.535 320.645H201.645L227.696 223.419H256C260.142 223.419 263.5 220.061 263.5 215.919C263.5 211.777 260.142 208.419 256 208.419H221.942C218.547 208.419 215.576 210.699 214.697 213.978L184.626 326.204C184.022 328.456 184.501 330.861 185.92 332.711C187.339 334.561 189.539 335.645 191.87 335.645H400.289C403.684 335.645 406.655 333.365 407.534 330.086L414.636 303.581H474.428C477.823 303.581 480.794 301.301 481.673 298.022L511.744 185.796C512.348 183.544 511.87 181.139 510.45 179.289ZM301.835 191.355H390.516L387.96 200.893C375.804 202.832 365.584 210.394 363.012 219.991C358.195 237.973 374.871 244.077 382.887 247.011C394.695 251.333 394.218 253.113 393.428 256.063C392.379 259.98 384.919 264.532 376.874 264.532C372.055 264.532 369.158 262.986 368.142 261.661C367.724 261.116 367.644 260.667 367.837 259.945C368.909 255.944 366.534 251.832 362.533 250.759C358.534 249.689 354.42 252.062 353.347 256.063C351.944 261.301 352.972 266.532 356.241 270.793C358.845 274.186 362.669 276.689 367.266 278.128L364.465 288.581H275.785L301.835 191.355ZM468.674 288.581H379.994L382.531 279.113C394.88 277.288 405.315 269.657 407.917 259.946C412.736 241.963 396.058 235.859 388.043 232.925C376.235 228.603 376.711 226.822 377.502 223.873C378.551 219.956 386.012 215.403 394.057 215.403C398.876 215.403 401.773 216.949 402.789 218.274C403.207 218.819 403.287 219.268 403.094 219.99C402.022 223.991 404.397 228.103 408.398 229.176C412.397 230.248 416.512 227.874 417.584 223.872C418.987 218.634 417.959 213.403 414.69 209.142C412.013 205.654 408.049 203.101 403.279 201.684L406.047 191.354H494.727L468.674 288.581Z" fill="black"/>
<path d="M319.347 216.691C315.347 215.624 311.234 217.993 310.161 221.994L301.569 254.058C300.497 258.059 302.871 262.172 306.872 263.244C307.522 263.418 308.175 263.501 308.818 263.501C312.129 263.501 315.16 261.291 316.058 257.94L324.65 225.876C325.722 221.876 323.348 217.763 319.347 216.691Z" fill="black"/>
<path d="M451.163 263.245C451.813 263.419 452.466 263.502 453.109 263.502C456.42 263.502 459.451 261.292 460.349 257.941L468.941 225.877C470.013 221.876 467.639 217.763 463.638 216.691C459.638 215.624 455.524 217.993 454.452 221.994L445.86 254.058C444.788 258.06 447.162 262.172 451.163 263.245Z" fill="black"/>
<path d="M236.022 254.059L227.431 286.123C226.359 290.124 228.734 294.236 232.735 295.309C233.385 295.483 234.038 295.566 234.681 295.566C237.992 295.566 241.023 293.356 241.921 290.005L250.512 257.941C251.584 253.94 249.209 249.828 245.208 248.755C241.21 247.686 237.094 250.058 236.022 254.059Z" fill="black"/>
<path d="M127.742 191.355H264.016C268.158 191.355 271.516 187.997 271.516 183.855C271.516 179.713 268.158 176.355 264.016 176.355H127.742C123.6 176.355 120.242 179.713 120.242 183.855C120.242 187.997 123.6 191.355 127.742 191.355Z" fill="black"/>
<path d="M127.223 215.92C127.223 211.778 123.865 208.42 119.723 208.42H7.5C3.358 208.42 0 211.778 0 215.92C0 220.062 3.358 223.42 7.5 223.42H119.723C123.865 223.42 127.223 220.062 127.223 215.92Z" fill="black"/>
<path d="M191.355 215.92C191.355 211.778 187.997 208.42 183.855 208.42H151.791C147.649 208.42 144.291 211.778 144.291 215.92C144.291 220.062 147.649 223.42 151.791 223.42H183.855C187.997 223.42 191.355 220.062 191.355 215.92Z" fill="black"/>
<path d="M175.839 240.484H63.613C59.471 240.484 56.113 243.842 56.113 247.984C56.113 252.126 59.471 255.484 63.613 255.484H175.839C179.981 255.484 183.339 252.126 183.339 247.984C183.339 243.842 179.981 240.484 175.839 240.484Z" fill="black"/>
<path d="M175.839 272.548H111.71C107.568 272.548 104.21 275.906 104.21 280.048C104.21 284.19 107.568 287.548 111.71 287.548H175.839C179.981 287.548 183.339 284.19 183.339 280.048C183.339 275.906 179.981 272.548 175.839 272.548Z" fill="black"/>
</svg>
