<svg xmlns="http://www.w3.org/2000/svg" xmlns:xlink="http://www.w3.org/1999/xlink" width="200" height="200" preserveAspectRatio="xMidYMid meet" viewBox="0 0 256 256" style="-ms-transform: rotate(360deg); -webkit-transform: rotate(360deg); transform: rotate(360deg);"><path d="M225.477 81.438a108.056 108.056 0 1 1-30.069-37.817l20.107-20.106a12 12 0 0 1 16.97 16.97l-62.056 62.056l-.002.003l-.003.002l-33.939 33.94a12 12 0 0 1-16.97-16.971l24.011-24.012a36.017 36.017 0 1 0 20.415 30.437a12 12 0 0 1 23.961-1.36a59.96 59.96 0 1 1-26.808-46.645l17.201-17.201a83.915 83.915 0 1 0 25.525 31.048a12 12 0 1 1 21.656-10.343z" fill="#626262"/><rect x="0" y="0" width="256" height="256" fill="rgba(0, 0, 0, 0)" /></svg>